# xmcd
#
# Track frame offsets: 
#        182
#        23205
#        42260
#        60110
#        79607
#        101840
#        118920
#        136767
#        159987
#        176560
#        199365
#
# Disc length: 2966 seconds
#
# Revision: 1
# Processed by: cddbd v1.5.2PL0 Copyright (c) Steve Scherf et al.
# Submitted via: ExactAudioCopy v0.99pb5
#
DISCID=8a0b940b
DTITLE=Portishead - Dummy
DYEAR=1994
DGENRE=
TTITLE0=Mysterons
TTITLE1=Sour Times
TTITLE2=Strangers
TTITLE3=It Could Be Sweet
TTITLE4=Wandering Star
TTITLE5=It S A Fire
TTITLE6=Numb
TTITLE7=Roads
TTITLE8=Pedestal
TTITLE9=Biscuit
TTITLE10=Glory Box
EXTD=
EXTT0=
EXTT1=
EXTT2=
EXTT3=
EXTT4=
EXTT5=
EXTT6=
EXTT7=
EXTT8=
EXTT9=
EXTT10=
PLAYORDER=
